<svg xmlns="http://www.w3.org/2000/svg" viewBox="0 0 24 24" fill="#888888">
  <path d="M19.14,12.94c0.04-0.3,0.06-0.61,0.06-0.94c0-0.32-0.02-0.64-0.07-0.94l2.03-1.58c0.18-0.14,0.23-0.41,0.12-0.61 l-1.92-3.32c-0.12-0.22-0.37-0.29-0.59-0.22l-2.39,0.96c-0.5-0.38-1.03-0.7-1.62-0.94L14.4,2.23c-0.04-0.24-0.24-0.41-0.48-0.41 h-3.84c-0.24,0-0.44,0.17-0.48,0.41L9.18,4.59C8.59,4.84,8.06,5.16,7.56,5.54L5.17,4.58C4.95,4.51,4.7,4.58,4.59,4.79L2.67,8.11 c-0.11,0.2-0.06,0.47,0.12,0.61l2.03,1.58C4.78,10.64,4.76,10.96,4.76,11.29c0,0.33,0.02,0.65,0.07,0.94l-2.03,1.58 c-0.18,0.14-0.23,0.41-0.12,0.61l1.92,3.32c0.12,0.22,0.37,0.29,0.59,0.22l2.39-0.96c0.5,0.38,1.03,0.7,1.62,0.94l0.42,2.36 c0.04,0.24,0.24,0.41,0.48,0.41h3.84c0.24,0,0.44-0.17,0.48-0.41l0.42-2.36c0.59-0.24,1.12-0.56,1.62-0.94l2.39,0.96 c0.22,0.07,0.47,0,0.59-0.22l1.92-3.32c0.11-0.2,0.06-0.47-0.12-0.61L19.14,12.94z M12,15.6c-1.98,0-3.6-1.62-3.6-3.6 s1.62-3.6,3.6-3.6s3.6,1.62,3.6,3.6S13.98,15.6,12,15.6z"/>
</svg>